<?xml version="1.0" encoding="UTF-8" standalone="no"?>
<!-- Created with Inkscape (http://www.inkscape.org/) -->

<svg
   width="1920"
   height="1080"
   viewBox="0 0 507.99999 285.75"
   version="1.1"
   id="svg5"
   xmlns="http://www.w3.org/2000/svg"
   xmlns:svg="http://www.w3.org/2000/svg">
  <defs
     id="defs2" />
  <g
     id="layer2">
    <rect
       style="fill:#2e3440;fill-opacity:1;stroke-width:0.981221"
       id="rect358"
       width="508"
       height="285.75"
       x="-1.4210855e-14"
       y="-1.4210855e-14" />
  </g>
  <g
     id="layer1">
    <path
       id="path2270"
       style="fill:#3b4252;fill-opacity:1;stroke-width:0.264583"
       d="m 152.70724,54.092528 c -1.30231,-7e-5 -2.35806,1.05568 -2.358,2.35799 2.2e-4,1.30211 1.05589,2.35755 2.358,2.35748 1.30211,6e-5 2.35777,-1.05537 2.35799,-2.35748 6e-5,-1.30231 -1.05568,-2.35805 -2.35799,-2.35799 z m 9.39839,1.2361 c -0.84244,-1.4e-4 -1.62096,0.4492 -2.04225,1.17874 -0.10304,0.17837 -0.18227,0.36948 -0.23565,0.56844 -0.33694,1.25791 0.40968,2.55078 1.6676,2.88767 1.25775,0.33698 2.55055,-0.40937 2.88768,-1.66708 0.33698,-1.25775 -0.40937,-2.55055 -1.66708,-2.88768 -0.19906,-0.0532 -0.40424,-0.0802 -0.6103,-0.0801 z m -18.81539,0.003 c -0.20606,-9e-5 -0.41124,0.0268 -0.6103,0.0801 -1.25818,0.33689 -2.00487,1.63012 -1.6676,2.8882 0.33735,1.25751 1.63008,2.00358 2.88768,1.66657 1.25767,-0.3369 2.00422,-1.62943 1.6676,-2.88717 -0.27616,-1.0308 -1.21023,-1.74761 -2.27738,-1.74769 z m 27.59263,3.62717 c -0.84255,-3e-5 -1.62109,0.44952 -2.04225,1.17925 -0.65073,1.12778 -0.26415,2.56954 0.86351,3.22048 1.12751,0.6509 2.56919,0.26481 3.22048,-0.86248 0.65152,-1.12788 0.26509,-2.57037 -0.863,-3.22151 -0.3584,-0.20686 -0.76493,-0.31575 -1.17874,-0.31574 z m -36.36832,0.007 c -0.41404,5e-5 -0.82076,0.10913 -1.17926,0.31626 -1.12778,0.65113 -1.51416,2.09323 -0.86299,3.22099 0.6513,1.12759 2.09337,1.51373 3.22099,0.86248 1.12747,-0.65112 1.5138,-2.09283 0.86299,-3.22047 -0.42107,-0.72958 -1.19937,-1.1791 -2.04173,-1.17926 z m 43.90585,5.77226 c -0.41381,-10e-6 -0.82034,0.10888 -1.17874,0.31574 -0.17842,0.10285 -0.3426,0.22863 -0.48835,0.37414 -0.9211,0.92103 -0.92087,2.41446 5.2e-4,3.3352 0.92091,0.92041 2.41354,0.92018 3.33416,-5.2e-4 0.92055,-0.92076 0.92055,-2.4134 0,-3.33416 -0.4423,-0.44219 -1.04216,-0.69054 -1.66759,-0.6904 z m -51.44183,0.01 c -0.41381,-1e-5 -0.82033,0.10888 -1.17873,0.31574 -0.17863,0.10297 -0.34299,0.22894 -0.48886,0.37466 -0.92124,0.92088 -0.92124,2.41431 0,3.33519 0.92105,0.92027 2.41368,0.91981 3.33416,-10e-4 0.9207,-0.92062 0.92093,-2.41325 5.2e-4,-3.33416 -0.44218,-0.44207 -1.04183,-0.69041 -1.66709,-0.6904 z m 57.22804,7.52254 c -0.41399,-1e-4 -0.82071,0.10879 -1.17926,0.31574 -1.12759,0.6513 -1.51373,2.09337 -0.86248,3.22099 0.65093,1.12766 2.0927,1.51425 3.22048,0.86352 1.12797,-0.65095 1.5146,-2.0931 0.86351,-3.221 -0.42116,-0.72973 -1.1997,-1.17928 -2.04225,-1.17925 z m -63.01063,0.0124 c -0.84255,-3e-5 -1.62109,0.44952 -2.04225,1.17926 -0.65116,1.12776 -0.26478,2.56986 0.863,3.22099 1.12778,0.65072 2.56954,0.26414 3.22047,-0.86352 0.65125,-1.12762 0.26511,-2.56969 -0.86248,-3.22099 -0.3584,-0.20686 -0.76493,-0.31575 -1.17874,-0.31574 z m 66.64916,8.76174 c -0.20606,-8e-5 -0.41123,0.0268 -0.61029,0.0801 -1.25797,0.33711 -2.00439,1.63027 -1.66709,2.88819 0.33713,1.25771 1.62993,2.00406 2.88768,1.66708 1.25771,-0.33713 2.00405,-1.62992 1.66708,-2.88767 -0.27616,-1.0308 -1.21022,-1.74762 -2.27738,-1.7477 z m -70.28459,0.0134 c -0.84245,-1.4e-4 -1.62097,0.4492 -2.04226,1.17874 -0.10308,0.17854 -0.1823,0.36982 -0.23564,0.56896 -0.33727,1.25808 0.40942,2.55131 1.6676,2.8882 1.25757,0.33628 2.54973,-0.4102 2.88664,-1.6676 0.33701,-1.25759 -0.40906,-2.55032 -1.66656,-2.88768 -0.19887,-0.0534 -0.40387,-0.0805 -0.60978,-0.0806 z m -1.24076,9.40305 c -1.30231,-6e-5 -2.35805,1.05568 -2.35799,2.35799 -7e-5,1.30231 1.05568,2.35806 2.35799,2.358 1.30211,-2.2e-4 2.35755,-1.05589 2.35748,-2.358 6e-5,-1.30211 -1.05537,-2.35777 -2.35748,-2.35799 z m 72.76972,0 c -1.30211,2.2e-4 -2.35754,1.05588 -2.35748,2.35799 -7e-5,1.30211 1.05537,2.35778 2.35748,2.358 1.30232,7e-5 2.35807,-1.05568 2.358,-2.358 6e-5,-1.30231 -1.05569,-2.35806 -2.358,-2.35799 z m -71.53465,9.41803 c -0.20606,-8e-5 -0.41124,0.0268 -0.6103,0.0801 -1.25771,0.337132 -2.00406,1.629932 -1.66708,2.887682 0.3369,1.25792 1.62977,2.00453 2.88768,1.66759 1.25771,-0.33713 2.00406,-1.62993 1.66708,-2.88768 -0.27616,-1.0308 -1.21023,-1.747612 -2.27738,-1.747692 z m 70.29545,0.0134 c -0.84255,-3e-5 -1.62109,0.449522 -2.04225,1.179262 -0.10286,0.1784 -0.18191,0.36951 -0.23513,0.56844 -0.33731,1.25792 0.40911,2.55108 1.66708,2.8882 1.25791,0.33694 2.55079,-0.40968 2.88768,-1.6676 0.33698,-1.25775 -0.40937,-2.55055 -1.66708,-2.887682 -0.19904,-0.0534 -0.40422,-0.0805 -0.6103,-0.0806 z m -66.66415,8.763292 c -0.41377,-1.7e-4 -0.82029,0.10855 -1.17874,0.31523 -1.12828,0.65097 -1.51494,2.0935 -0.86351,3.22151 0.65114,1.12809 2.09364,1.51451 3.22151,0.86299 1.12759,-0.6513 1.51373,-2.09337 0.86248,-3.22099 -0.4212,-0.72938 -1.19948,-1.17869 -2.04174,-1.17874 z m 63.03026,0.0124 c -0.84226,5e-5 -1.62053,0.44936 -2.04173,1.17874 -0.65125,1.12762 -0.26511,2.56969 0.86248,3.22099 1.12776,0.65116 2.56986,0.26478 3.22099,-0.863 0.65152,-1.12788 0.26509,-2.57037 -0.863,-3.22151 -0.35845,-0.20668 -0.76497,-0.31539 -1.17874,-0.31522 z m -57.2518,7.52615 c -0.41381,-1e-5 -0.82034,0.10888 -1.17874,0.31574 -0.17845,0.10301 -0.34263,0.22897 -0.48834,0.37466 -0.92055,0.92076 -0.92055,2.4134 0,3.33416 0.92082,0.9209 2.41386,0.9209 3.33468,0 0.92041,-0.92091 0.92018,-2.41354 -5.2e-4,-3.33416 -0.44217,-0.44207 -1.04183,-0.6904 -1.66708,-0.6904 z m 51.46973,0.009 c -0.41404,5e-5 -0.82076,0.10913 -1.17926,0.31626 -0.17827,0.10305 -0.34227,0.22901 -0.48782,0.37466 -0.92104,0.92068 -0.92128,2.41371 -5.2e-4,3.33468 0.92082,0.9209 2.41386,0.9209 3.33468,0 0.9209,-0.92082 0.9209,-2.41386 0,-3.33468 -0.44209,-0.44226 -1.04175,-0.69079 -1.66708,-0.69092 z m -43.93634,5.77639 c -0.84234,-2.4e-4 -1.62083,0.44889 -2.04225,1.17823 -0.65152,1.12788 -0.26509,2.57037 0.863,3.22151 1.1279,0.65108 2.57004,0.26445 3.22099,-0.86352 0.65081,-1.12764 0.26447,-2.56936 -0.863,-3.22047 -0.3584,-0.20686 -0.76493,-0.31576 -1.17874,-0.31575 z m 36.4014,0.007 c -0.41381,-1e-5 -0.82034,0.10889 -1.17874,0.31575 -1.12797,0.65095 -1.51459,2.0931 -0.86351,3.22099 0.65113,1.12778 2.09323,1.51416 3.22099,0.86299 1.12778,-0.65113 1.51416,-2.09323 0.86299,-3.22099 -0.4212,-0.72938 -1.19947,-1.17869 -2.04173,-1.17874 z m -27.62777,3.63234 c -0.84245,-1.4e-4 -1.62097,0.4492 -2.04226,1.17874 -0.10304,0.17837 -0.18226,0.36948 -0.23564,0.56844 -0.33694,1.25791 0.40968,2.55079 1.6676,2.88768 1.25775,0.33698 2.55055,-0.40937 2.88768,-1.66708 0.33665,-1.25759 -0.40962,-2.55004 -1.66708,-2.88717 -0.19904,-0.0534 -0.40422,-0.0805 -0.6103,-0.0806 z m 18.85208,0.003 c -0.20591,1.3e-4 -0.41092,0.0272 -0.60979,0.0806 -1.25792,0.3369 -2.00453,1.62977 -1.66759,2.88768 0.33712,1.25772 1.62993,2.00407 2.88768,1.66709 1.25792,-0.3369 2.00453,-1.62977 1.66759,-2.88768 -0.27621,-1.03099 -1.21054,-1.74785 -2.27789,-1.7477 z m -9.41648,1.24075 c -1.30211,-7e-5 -2.35778,1.05537 -2.358,2.35748 -7e-5,1.30232 1.05568,2.35807 2.358,2.358 1.30231,6e-5 2.35806,-1.05569 2.35799,-2.358 -2.2e-4,-1.30211 -1.05588,-2.35754 -2.35799,-2.35748 z" />
  </g>
</svg>
