<?xml version="1.0" encoding="utf-8"?>
<!-- Generator: Adobe Illustrator 19.1.0, SVG Export Plug-In . SVG Version: 6.00 Build 0)  -->
<svg version="1.1" id="Konstruktion_Kopie" xmlns="http://www.w3.org/2000/svg" xmlns:xlink="http://www.w3.org/1999/xlink" x="0px"
	 y="0px" viewBox="0 0 216 120" style="enable-background:new 0 0 216 120;" xml:space="preserve">
<style type="text/css">
	.st0{fill:#58585A;}
	.st1{fill:#007CBF;}
</style>
<g>
	<g>
		<path class="st0" d="M0.8,108.8V108c0-6.7,3.5-10.6,8.1-10.6c2,0,3.5,0.7,5,2l-2,3.4c-0.7-0.7-1.6-1.5-2.9-1.5c-2.3,0-4,2.6-4,7
			v0.3c0,4.5,1.6,7,4.1,6.9c1.3,0,2.1-0.7,2.9-1.6l2,3.1c-1.2,1.4-3,2.3-5.3,2.3C4,119.3,0.8,115.5,0.8,108.8z"/>
		<path class="st0" d="M16.7,90.5h4.1v10.2c1-1.8,2.4-3.3,4.9-3.3c3.3,0,5.3,2.5,5.3,6.6v15h-4.1v-13.9c0-2.6-1.1-4-2.9-4
			s-3.1,1.5-3.1,4v13.8h-4.1V90.5z"/>
		<path class="st0" d="M33.9,112.9v-0.4c0-4.5,2.5-6.8,6.2-6.8c1.5,0,2.7,0.4,3.9,0.8v-1.3c0-2.7-1.5-4-3.8-4c-1.7,0-3.2,0.8-4,1.3
			l-1.3-3.4c1.7-0.9,3.6-1.6,5.9-1.6c2.3,0,4.1,0.7,5.3,1.9c1.3,1.3,2,3.2,2,5.7v13.8H44v-2.5c-1,1.8-2.6,2.9-4.7,2.9
			C36.2,119.3,33.9,116.9,33.9,112.9z M44,112.4v-2.9c-0.8-0.4-1.9-0.6-2.9-0.6c-2,0-3.1,1.4-3.1,3.6v0.2c0,2.2,1.1,3.4,2.7,3.5
			C42.5,116.1,44,114.4,44,112.4z"/>
		<path class="st0" d="M51.9,97.7h4.1v2.9c1-1.9,2.5-3.3,4.8-3.3c2.1,0,3.7,1.1,4.6,3c1.1-1.6,2.6-3,5.1-3c3.1,0,5.4,2.2,5.4,6.6v15
			h-4.1v-13.8c0-2.7-1-4-2.8-4c-1.8,0-3,1.5-3,4.1v13.8h-4.2v-13.8c0-2.7-1-4-2.7-4c-1.8,0-3,1.6-3,4.1v13.8h-4.1V97.7z"/>
		<path class="st0" d="M78.9,112.9v-0.4c0-4.5,2.5-6.8,6.2-6.8c1.5,0,2.7,0.4,3.9,0.8v-1.3c0-2.7-1.5-4-3.8-4c-1.7,0-3.2,0.8-4,1.3
			l-1.3-3.4c1.7-0.9,3.6-1.6,5.9-1.6c2.3,0,4.1,0.7,5.3,1.9c1.3,1.3,2,3.2,2,5.7v13.8H89v-2.5c-1,1.8-2.6,2.9-4.7,2.9
			C81.3,119.3,78.9,116.9,78.9,112.9z M89,112.4v-2.9c-0.8-0.4-1.9-0.6-2.9-0.6c-2,0-3.1,1.4-3.1,3.6v0.2c0,2.2,1.1,3.4,2.7,3.5
			C87.5,116.1,89,114.4,89,112.4z"/>
		<path class="st0" d="M96.2,108.7v-0.6c0-6.7,3.3-10.8,7.6-10.8c4.7,0,7.3,4.2,7.3,10.8c0,0.2,0,1,0,1.9h-10.7
			c0.3,3.7,2.2,5.6,4.6,5.6c1.6,0,2.8-0.9,3.9-2l1.9,3.1c-1.8,1.6-3.7,2.5-6.1,2.5C99.9,119.3,96.2,115.5,96.2,108.7z M107.1,107
			c-0.1-3.6-1.3-6.1-3.3-6.1c-1.9,0-3.3,2.2-3.5,6.1H107.1z"/>
		<path class="st0" d="M114.4,90.5h4.1v28.4h-4.1V90.5z"/>
		<path class="st0" d="M122,108.7v-0.6c0-6.7,3.3-10.8,7.6-10.8c4.7,0,7.3,4.2,7.3,10.8c0,0.2,0,1,0,1.9h-10.7
			c0.3,3.7,2.2,5.6,4.6,5.6c1.6,0,2.8-0.9,3.9-2l1.9,3.1c-1.8,1.6-3.7,2.5-6.1,2.5C125.8,119.3,122,115.5,122,108.7z M132.9,107
			c-0.1-3.6-1.3-6.1-3.3-6.1c-1.9,0-3.3,2.2-3.5,6.1H132.9z"/>
		<path class="st0" d="M139.4,108.7v-0.7c0-6.5,3.4-10.7,8-10.7c4.6,0,8,4.1,8,10.6v0.7c0,6.5-3.4,10.6-8,10.6
			C142.7,119.3,139.4,115.2,139.4,108.7z M151.2,108.6v-0.4c0-4.3-1.6-7.1-3.9-7.1c-2.3,0-3.9,2.8-3.9,7.1v0.4
			c0,4.3,1.6,7.1,3.9,7.1C149.7,115.7,151.2,112.8,151.2,108.6z"/>
		<path class="st0" d="M158.7,97.7h4.1v2.9c1-1.8,2.4-3.3,4.9-3.3c3.3,0,5.3,2.5,5.3,6.6v15h-4.1v-13.9c0-2.6-1.1-4-2.9-4
			s-3.1,1.5-3.1,4v13.8h-4.1V97.7z"/>
	</g>
	<g>
		<path class="st0" d="M189.3,96l-6.5,22.9h3.9l1.4-5.1h6.1l1.4,5.1h4.1L193.1,96H189.3z M193.2,110.2H189l2.1-7.7L193.2,110.2z"/>
		<path class="st0" d="M208.3,106.1v3.5h3.5v5.4c-0.5,0.3-1.3,0.5-2,0.5c-3.1,0-5.1-3-5.1-7.8v-0.4c0-4.6,2-7.7,5-7.7
			c1.3,0,2.4,0.5,3.3,1.5l0.2,0.2l2.2-3.3l-0.2-0.1c-1.6-1.4-3.4-2-5.6-2c-5.4,0-9,4.6-9,11.4v0.4c0,7,3.4,11.4,8.9,11.4
			c2,0,3.9-0.6,5.9-1.9l0.1-0.1v-11.1H208.3z"/>
	</g>
</g>
<g>
	<path class="st0" d="M92.2,50.7C93.8,33,107.1,18,125.4,14.9c21.7-3.6,42.3,11.1,45.9,32.8c0.2,1.3,0.4,2.6,0.5,4
		c0.4-5.3-0.4-9.6-0.4-9.6c-4.8-27-30.5-45.1-57.6-40.6C101.4,3.6,90.9,10,83.4,18.9c0.6-4.6,0.4-10.2-1.9-7.8
		c-3.2,3.3-13.2,6.4-16.5,7.1c0,0,0,0,0,0c-8.5,1.9-15.8,9-18.9,21.8c-3,12.1-14.5,20.2-14.6,20.3l0,0c7,8,26.7-3.2,26.9-3.3
		l0.9,1.8c-0.2,0.1-8.5,4.8-18.4,5.9c0,0,10.7,5.2,32-3.5c0,0,0,0,0,0c0,0,0.4-0.2,1.1-0.5c0.2-0.1,0.4-0.2,0.7-0.3c0,0,0,0,0,0
		C78.2,58.8,86.4,54.6,92.2,50.7z M64,40.9c-4.7,1.3-9.7-1.5-11-6.2c-1.3-4.7,1.5-9.7,6.2-11c4.7-1.3,9.7,1.5,11,6.2
		C71.5,34.6,68.7,39.6,64,40.9z"/>
</g>
<path class="st1" d="M89.3,21.2c-0.4-2.3-1-4.5-1.7-6.7c-1.5,1.4-2.9,2.9-4.2,4.4c0.6-4.6,0.4-10.2-1.9-7.8
	c-3.2,3.3-13.2,6.4-16.5,7.1c0,0,0,0,0,0c-8.5,1.9-15.8,9-18.9,21.8c-3,12.1-14.5,20.2-14.6,20.3l0,0c7,8,26.7-3.2,26.9-3.3l0.9,1.8
	c-0.2,0.1-8.5,4.8-18.4,5.9c0,0,0.7,0.3,1.9,0.7c2.7,0.6,5.4,0.9,8.2,0.9c2.5,0,5.5-0.3,8.9-1C79.7,60.7,92.7,41.5,89.3,21.2z
	 M53,34.6c-1.3-4.7,1.5-9.7,6.2-11c4.7-1.3,9.7,1.5,11,6.2c1.3,4.7-1.5,9.7-6.2,11C59.2,42.2,54.3,39.4,53,34.6z"/>
<path class="st1" d="M65.7,35.7c1.5-0.4,2.3-1.6,2-3.5c-0.1-1-1.1-2.4-3.3-2.1c-2.2,0.4-2.1,2.2-1.8,3.5
	C62.9,34.8,64.2,36.1,65.7,35.7z"/>
<path class="st1" d="M171.3,47.8c-3.6-21.7-24.2-36.4-45.9-32.8c-18.3,3-31.6,18.1-33.2,35.8c0.2-0.2,0.5-0.3,0.7-0.5
	c0.8,0.3,2.6,0.5,5,0.6c-0.1,1.5-0.8,4.2-4.1,6.4C92,58.5,91,59.4,89,59.9c-3.3,0.8-6.8,2.9-7.3,3.7c-0.5,0.8-0.4,1-0.1,1.5
	c0.5,0.6,1.3,1,5.6,0.6c2.9-0.2,4.8-0.6,5.4-0.6c0.6-0.1,0.7-0.7,0.9-1.4c0.9-3.4,15.2-6.8,16.2-10.8c0.2-0.7,0.2-1.5,0.2-2.2
	c4.4-0.2,9.2-0.7,13.9-1.2c-0.4,0.7-0.7,1.4-0.9,2.1c-0.9,3.1-0.1,6.7,0.7,9.1c-4.1,1.1-6.4,2.8-6.4,3.8c0,1,3.8,1.5,6.9,1.4
	c2.3-0.1,5.1-0.1,5.6-0.7c0.4-0.4,0.6-0.7,0.1-1.9c-0.3-0.6-1.7-4.1,0.5-8.1c1.7-3,2.8-3.8,9.6-7.1c2.4-1.2,4.5-2.1,6.4-2.9
	c3.1-0.5,6.5-0.6,9.2,0.4c3.6,1.3,5.5,3.8,6.2,7.9c0.8,4.3-2.6,9.3-6.6,9.9l-1-1.9c3.5-0.6,5.8-3.9,5.3-7.4c-0.6-3.9-3-6.9-8.8-6.6
	c-2.8,0.2-4.2,1-6.4,2.6c-10.7,9.1,0.6,24.8,12.4,21.9c11.5-2.9,14.6-12.7,15.1-20.2C171.6,50.4,171.5,49.1,171.3,47.8z"/>
</svg>
