<?xml version="1.0" encoding="utf-8"?>
<!-- Generator: Adobe Illustrator 19.1.1, SVG Export Plug-In . SVG Version: 6.00 Build 0)  -->
<svg version="1.1" baseProfile="tiny" id="Ebene_1" xmlns="http://www.w3.org/2000/svg"
	 x="0px" y="0px" viewBox="0 0 140.9 47" xml:space="preserve">
<linearGradient id="SVGID_1_" gradientUnits="userSpaceOnUse" x1="3.8509" y1="28" x2="15.8509" y2="28">
	<stop  offset="0" style="stop-color:#F08800"/>
	<stop  offset="1" style="stop-color:#F5C100"/>
</linearGradient>
<path fill-rule="evenodd" fill="url(#SVGID_1_)" d="M3.9,26h12v4h-12V26z"/>
<linearGradient id="SVGID_2_" gradientUnits="userSpaceOnUse" x1="3.8509" y1="22" x2="15.8509" y2="22">
	<stop  offset="0" style="stop-color:#8C181B"/>
	<stop  offset="1" style="stop-color:#D4121B"/>
</linearGradient>
<path fill-rule="evenodd" fill="url(#SVGID_2_)" d="M3.9,20h12v4h-12V20z"/>
<linearGradient id="SVGID_3_" gradientUnits="userSpaceOnUse" x1="3.8509" y1="16" x2="15.8509" y2="16">
	<stop  offset="0" style="stop-color:#171510"/>
	<stop  offset="1" style="stop-color:#3E3937"/>
</linearGradient>
<path fill-rule="evenodd" fill="url(#SVGID_3_)" d="M3.9,14h12v4h-12V14z"/>
<path fill-rule="evenodd" fill="#2D2D2B" d="M20,4V0H0v23c0,0-0.4,20.4,20,24v-4c0,0-15.2-2.2-16-20C4,4.8,4,4,4,4H20z"/>
<g>
	<path fill="#2D2D2B" d="M27.2,18.4c-0.9,1.3-1.3,2.9-1.3,4.9V30h-3.2V13.8h3.2v1.5c1.6-1.2,3.9-1.8,7-1.8v2.8
		C30.1,16.3,28.2,17,27.2,18.4z"/>
	<path fill="#2D2D2B" d="M34.8,30V7.6H38V30H34.8z"/>
	<path fill="#2D2D2B" d="M56.7,28.4c-1.6,1.7-3.8,2.6-6.7,2.6c-2.3,0-4.2-0.6-5.8-1.9v6.5H41V13.9h3.2v1.5c1.6-1.2,3.5-1.8,5.8-1.8
		c2.8,0,5.1,0.8,6.7,2.5c1.5,1.6,2.3,3.6,2.3,6.2C58.9,24.7,58.1,26.8,56.7,28.4z M54.3,18c-1-1.1-2.4-1.6-4.2-1.6
		c-1.8,0-3.3,0.5-4.4,1.6c-1.1,1.1-1.6,2.4-1.6,4.2c0,3.9,2,5.9,5.9,5.9c1.8,0,3.2-0.6,4.3-1.7c0.9-1,1.4-2.4,1.4-4.2
		C55.8,20.5,55.3,19.1,54.3,18z"/>
	<path fill="#2D2D2B" d="M67.2,30h-5.6V13.7h6.6c2.7,0,4.7,0.7,6.1,2.2c1.3,1.4,2,3.4,2,6c0,2.7-0.8,4.7-2.5,6.1
		C72.1,29.3,69.9,30,67.2,30z M73.3,16.7c-1.2-1.2-2.9-1.9-5.2-1.9h-5.3v14h4.5c2.4,0,4.3-0.6,5.7-1.8c1.4-1.2,2-2.9,2-5.2
		C75,19.6,74.4,17.9,73.3,16.7z"/>
	<path fill="#2D2D2B" d="M78.4,30V13.7h1.2V30H78.4z"/>
	<path fill="#2D2D2B" d="M92.8,22.1c1.7,0.7,2.5,1.9,2.5,3.8V30h-1.2v-4.1c0-2.1-1.5-3.2-4.5-3.2h-6.4V30H82V13.7h7.8
		c3.8,0,5.7,1.4,5.7,4.3C95.6,20,94.7,21.3,92.8,22.1z M89.9,14.9h-6.7v6.7h6.3c1.4,0,2.5-0.3,3.3-0.8c1-0.6,1.5-1.5,1.5-2.7
		C94.4,15.9,92.9,14.9,89.9,14.9z"/>
	<path fill="#2D2D2B" d="M97.9,30V13.7h12.4v1.1H99.1V21h9.9v1.1h-9.9v6.8h11.3V30H97.9z"/>
	<path fill="#2D2D2B" d="M125.7,30l-9.1-8.6l-3.5,2.6V30H112V13.7h1.2v8.9l12-8.9h1.9l-9.5,7l9.8,9.3H125.7z"/>
	<path fill="#2D2D2B" d="M134.7,14.9V30h-1.2V14.9h-6.2v-1.1h13.7v1.1H134.7z"/>
</g>
</svg>
