<?xml version="1.0" encoding="UTF-8" standalone="no"?>
<!-- Created with Inkscape (http://www.inkscape.org/) -->

<svg
   width="64"
   height="64"
   viewBox="0 0 16.933333 16.933333"
   version="1.1"
   id="svg5"
   xmlns="http://www.w3.org/2000/svg"
   xmlns:svg="http://www.w3.org/2000/svg">
  <defs
     id="defs2" />
  <path
     id="path2270"
     style="fill:#3b4252;fill-opacity:1;stroke-width:0.0578206"
     d="M 8.4672315,0 C 8.1826314,-1.5298921e-5 7.9519132,0.23070238 7.9519261,0.51530189 7.9519743,0.7998577 8.1826751,1.0305076 8.4672315,1.0304923 8.751788,1.0305054 8.9824867,0.7998577 8.9825348,0.51530189 8.9825478,0.23070238 8.7518317,-1.3113577e-5 8.4672315,0 Z m 2.0538765,0.27013035 c -0.184103,-3.059e-5 -0.354237,0.0981656 -0.446303,0.25759521 -0.02252,0.03898 -0.03983,0.0807441 -0.0515,0.12422369 -0.073633,0.27489661 0.08953,0.55743315 0.364429,0.63105515 0.274863,0.073642 0.557384,-0.089461 0.631059,-0.36431427 0.07364,-0.2748616 -0.08946,-0.55738287 -0.364315,-0.63105736 -0.0435,-0.011626 -0.08834,-0.0175265 -0.133372,-0.0175046 z m -4.1118196,6.5616e-4 c -0.045031,-1.968e-5 -0.08987,0.005857 -0.133372,0.0175046 -0.2749563,0.073622 -0.4381341,0.35623724 -0.3644289,0.631171 C 5.9852102,1.1942713 6.267717,1.3573132 6.5425465,1.2836649 6.8173912,1.2100402 6.9805386,0.92757793 6.9069754,0.6527185 6.8466248,0.42745325 6.6424977,0.27080562 6.4092884,0.27078813 Z M 12.439241,1.0634473 c -0.184126,-6.5e-6 -0.354264,0.098236 -0.446303,0.2577067 -0.142207,0.2464587 -0.05773,0.5615328 0.188708,0.7037856 0.2464,0.142244 0.561457,0.05787 0.703787,-0.1884815 0.14238,-0.2464806 0.05793,-0.5617142 -0.188596,-0.7040107 -0.07832,-0.045206 -0.167164,-0.069002 -0.257596,-0.069 z m -7.9477474,0.00153 C 4.4010114,1.0649875 4.3121289,1.0888253 4.2337842,1.1340903 3.9873248,1.2763846 3.9028873,1.591533 4.0451905,1.8379873 4.1875223,2.0844046 4.5026651,2.1687894 4.7490893,2.0264689 4.995481,1.8841768 5.0799077,1.5691136 4.9376827,1.3226855 4.8456644,1.1632476 4.6755786,1.065012 4.4914936,1.0649773 Z m 9.5949614,1.2614378 c -0.09043,-2.2e-6 -0.179273,0.023794 -0.257596,0.069 -0.03899,0.022476 -0.07487,0.049964 -0.106721,0.081762 -0.201293,0.2012767 -0.201243,0.5276426 1.13e-4,0.7288558 0.201251,0.2011412 0.527443,0.201091 0.728631,-1.135e-4 0.201172,-0.2012178 0.201172,-0.5274109 0,-0.7286287 -0.09666,-0.096634 -0.227749,-0.1509068 -0.364427,-0.1508756 z m -11.2418362,0.00219 c -0.090432,-2.2e-6 -0.1792709,0.023794 -0.2575937,0.069 -0.039037,0.022503 -0.074955,0.050031 -0.106833,0.081876 -0.2013231,0.201244 -0.2013231,0.5276099 0,0.7288535 0.2012817,0.2011106 0.5274735,0.20101 0.7286304,-2.185e-4 C 3.4100275,3.0069239 3.4100778,2.6807329 3.2089362,2.4794825 3.1123043,2.3828749 2.9812599,2.3286041 2.8446188,2.3286062 Z M 15.350944,3.9725334 c -0.09047,-2.19e-5 -0.179354,0.023775 -0.25771,0.069 C 14.846816,4.183865 14.762432,4.4990067 14.904752,4.7454306 15.047003,4.9918632 15.36208,5.0763463 15.60854,4.9341393 15.855041,4.7918847 15.939533,4.476725 15.797247,4.2302402 15.705207,4.0707692 15.53507,3.9725271 15.350944,3.9725334 Z M 1.5809209,3.9752428 C 1.3967943,3.9752361 1.2266562,4.0734783 1.134618,4.2329514 0.9923168,4.4794057 1.076754,4.7945543 1.3232136,4.9368486 1.569673,5.0790534 1.8847478,4.9945722 2.0269988,4.7481398 2.1693196,4.5017165 2.0849346,4.1865747 1.8385168,4.0442432 1.7601939,3.9990373 1.6713529,3.9752409 1.5809209,3.9752433 Z M 16.14609,5.889984 c -0.04503,-1.74e-5 -0.08987,0.00586 -0.13337,0.017505 -0.27491,0.07367 -0.438029,0.3562702 -0.364317,0.6311691 0.07367,0.2748528 0.356196,0.437956 0.631059,0.3643143 0.274853,-0.073675 0.437954,-0.3561937 0.364315,-0.6310553 C 16.583427,6.0466517 16.379301,5.8900017 16.14609,5.8899843 Z M 0.78645252,5.892913 C 0.6023478,5.8928825 0.43221399,5.9910787 0.34014741,6.1505081 0.31762081,6.1895254 0.30030851,6.2313266 0.28865181,6.2748456 0.21494651,6.5497794 0.37812441,6.8323946 0.65308064,6.9060165 0.92790361,6.9795053 1.2102857,6.8163738 1.2839123,6.5415887 1.3575613,6.266762 1.1945183,5.9842561 0.91971074,5.9105313 0.87625074,5.8988605 0.83145104,5.8929391 0.78645249,5.892918 Z M 0.51530316,7.9478027 C 0.23070294,7.9477897 -1.3113609e-5,8.178505 0,8.4631046 -1.5298958e-5,8.7477041 0.23070294,8.9784218 0.51530316,8.9784086 0.79985965,8.9783607 1.0305101,8.7476605 1.0304949,8.4631046 1.030508,8.1785489 0.79985965,7.9478508 0.51530316,7.9478027 Z m 15.90272484,0 c -0.284557,4.81e-5 -0.515205,0.2307462 -0.515192,0.5153019 -1.5e-5,0.2845559 0.230635,0.5152561 0.515192,0.515304 0.284602,1.54e-5 0.515321,-0.2307023 0.515305,-0.515304 1.4e-5,-0.2845996 -0.230705,-0.5153173 -0.515305,-0.5153019 z M 0.78520906,10.005966 c -0.0450313,-1.7e-5 -0.0898703,0.0059 -0.13337185,0.0175 -0.27485356,0.07367 -0.43795709,0.356196 -0.36431519,0.631058 0.0736244,0.274899 0.35616166,0.438058 0.63105892,0.364425 C 1.1934345,10.94528 1.356538,10.662759 1.2828961,10.387897 1.2225455,10.162632 1.0184186,10.005984 0.78520906,10.005966 Z m 15.36200994,0.0029 c -0.184126,-7e-6 -0.354264,0.09824 -0.446302,0.257709 -0.02248,0.03899 -0.03975,0.08075 -0.05138,0.124224 -0.07371,0.274899 0.0894,0.557499 0.364316,0.631171 0.274897,0.07363 0.557436,-0.08953 0.631059,-0.364428 0.07364,-0.274862 -0.08946,-0.557383 -0.364316,-0.631058 -0.0435,-0.01167 -0.08834,-0.01759 -0.133372,-0.01761 z m -14.5684441,1.91508 c -0.090423,-3.7e-5 -0.179262,0.02372 -0.2575958,0.06889 -0.2465686,0.142259 -0.33106731,0.457502 -0.1887071,0.70401 0.1422968,0.246527 0.4575334,0.330973 0.7040124,0.188593 0.2464178,-0.142331 0.3308029,-0.457473 0.188482,-0.703897 -0.092047,-0.159394 -0.2621282,-0.257584 -0.4461915,-0.257595 z m 13.7743131,0.0027 c -0.184064,10e-6 -0.354143,0.0982 -0.44619,0.257595 -0.14232,0.246423 -0.05794,0.561565 0.188482,0.703897 0.246455,0.142301 0.561604,0.05786 0.703899,-0.188595 0.14238,-0.246481 0.05793,-0.561715 -0.188595,-0.704011 -0.07833,-0.04517 -0.167173,-0.06892 -0.257596,-0.06889 z M 2.8415702,13.571407 c -0.090432,-2e-6 -0.1792729,0.02379 -0.2575958,0.069 -0.038998,0.02251 -0.074877,0.05004 -0.1067194,0.08188 -0.2011723,0.201218 -0.2011723,0.527411 0,0.728629 0.2012314,0.201248 0.5275126,0.201248 0.7287441,0 0.2011416,-0.201251 0.2010913,-0.527442 -1.138e-4,-0.728629 -0.096629,-0.09661 -0.227676,-0.150876 -0.3643151,-0.150876 z m 11.2479338,0.002 c -0.09048,1.1e-5 -0.179365,0.02385 -0.25771,0.06911 -0.03896,0.02252 -0.0748,0.05005 -0.106606,0.08188 -0.201279,0.2012 -0.201332,0.527478 -1.13e-4,0.728742 0.201231,0.201248 0.527512,0.201248 0.728744,0 0.201248,-0.201231 0.201248,-0.527511 0,-0.728742 -0.09661,-0.09665 -0.227659,-0.150962 -0.364315,-0.15099 z m -9.6016251,1.26234 c -0.1840807,-5.2e-5 -0.3542078,0.0981 -0.4463029,0.257484 -0.1423799,0.24648 -0.057931,0.561714 0.1885956,0.70401 0.2464855,0.142284 0.5616434,0.05779 0.7038988,-0.188708 0.1422249,-0.246429 0.057796,-0.561494 -0.1885955,-0.703784 -0.078323,-0.04521 -0.1671641,-0.069 -0.257596,-0.069 z m 7.9549771,0.0015 c -0.09043,-3e-6 -0.179273,0.0238 -0.257596,0.069 -0.246501,0.142255 -0.330991,0.457414 -0.188707,0.703897 0.142295,0.246459 0.457444,0.330896 0.703899,0.188593 0.246459,-0.142294 0.330897,-0.457443 0.188593,-0.703897 -0.09205,-0.159395 -0.262126,-0.257584 -0.446189,-0.257595 z m -6.0376324,0.793791 c -0.1841048,-3.1e-5 -0.3542388,0.09816 -0.4463053,0.257595 -0.022519,0.03898 -0.03983,0.08074 -0.051496,0.124224 -0.073633,0.274896 0.08953,0.557435 0.3644289,0.631057 0.2748624,0.07364 0.5573842,-0.08946 0.631059,-0.364314 0.07357,-0.274827 -0.089516,-0.557271 -0.3643153,-0.630946 -0.043497,-0.01167 -0.088336,-0.01759 -0.1333717,-0.01761 z m 4.1198374,6.61e-4 c -0.045,2.9e-5 -0.0898,0.0059 -0.13326,0.01761 -0.2749,0.07362 -0.4380599,0.35616 -0.364427,0.631057 0.07367,0.274855 0.356197,0.437958 0.631059,0.364317 0.2749,-0.07362 0.43806,-0.356161 0.364427,-0.631058 -0.06036,-0.225307 -0.264546,-0.381965 -0.497799,-0.381932 z m -2.0578295,0.271147 c -0.2845564,-1.6e-5 -0.5152572,0.230634 -0.5153054,0.51519 -1.5e-5,0.284602 0.2307032,0.51532 0.5153054,0.515304 0.2846002,1.4e-5 0.5153184,-0.230704 0.5153033,-0.515304 -4.81e-5,-0.284556 -0.2307468,-0.515203 -0.5153033,-0.51519 z" />
</svg>
