<?xml version="1.0" encoding="UTF-8" standalone="no"?>
<!-- Created with Inkscape (http://www.inkscape.org/) -->

<svg
   width="64"
   height="64"
   viewBox="0 0 16.933333 16.933333"
   version="1.1"
   id="svg5"
   xmlns="http://www.w3.org/2000/svg"
   xmlns:svg="http://www.w3.org/2000/svg">
  <defs
     id="defs2" />
  <path
     id="path363"
     style="fill:#3b4252;stroke-width:0.292941;fill-opacity:1"
     d="M 8.4666665 0 A 8.4666662 8.4666662 0 0 0 0 8.4666665 A 8.4666662 8.4666662 0 0 0 8.4666665 16.933333 A 8.4666662 8.4666662 0 0 0 16.933333 8.4666665 A 8.4666662 8.4666662 0 0 0 8.4666665 0 z M 8.4666665 0.79374998 A 7.6729164 7.6729164 0 0 1 16.139583 8.4666665 A 7.6729164 7.6729164 0 0 1 8.4666665 16.139583 A 7.6729164 7.6729164 0 0 1 0.79374998 8.4666665 A 7.6729164 7.6729164 0 0 1 8.4666665 0.79374998 z " />
</svg>
